<?xml version="1.0" encoding="utf-8"?>
<!-- Generator: Adobe Illustrator 28.4.1, SVG Export Plug-In . SVG Version: 6.00 Build 0)  -->
<svg version="1.1" id="레이어_1" xmlns="http://www.w3.org/2000/svg" xmlns:xlink="http://www.w3.org/1999/xlink" x="0px"
	 y="0px" viewBox="0 0 402.94 74.86" style="enable-background:new 0 0 402.94 74.86;" xml:space="preserve">
<style type="text/css">
	.st0{fill:#FFFFFF;}
</style>
<g>
	<polygon class="st0" points="4.08,70.24 4.08,10.32 11.85,10.32 11.85,61.26 43.98,61.26 43.98,70.24 	"/>
	<polygon class="st0" points="48.76,70.24 48.76,10.32 91.43,10.32 83.7,18.85 56.66,18.85 56.66,34.15 76.61,34.15 76.61,42.78 
		56.66,42.78 56.66,61.34 85.09,61.34 92.82,70.24 	"/>
	<path class="st0" d="M105.77,61.46h24.89c10.83,0,10.45-19.4,0.37-19.4h-25.26V61.46L105.77,61.46z M105.77,33.31h17.15
		c3.54,0,6.3-0.2,7.86-0.55c7.04-1.57,5.44-11.83,0.78-13.05c-1.78-0.45-5.29-0.64-9.66-0.64h-16.14V33.31L105.77,33.31z
		 M97.72,70.24V10.32h27.42c4.63,0,8.36,0.62,11.16,1.81c4.8,2.07,7.22,7.2,7.22,13.52c0,6.14-2.47,9.4-4.2,10.93
		c1.9,1.2,7.55,6.23,7.55,15.56c0,9.19-4.65,15.35-11.57,17.09c-2.65,0.66-5.92,1.01-9.79,1.01H97.72z"/>
	<polygon class="st0" points="242.5,70.24 270.79,2.94 298.72,70.24 290.15,70.24 270.61,23.98 250.7,70.24 	"/>
	<path class="st0" d="M325.91,46.13v-8.37h20.87v19.35c-9.27,14.49-22.65,18.34-35.36,11.12c-4.49-2.55-7.9-6.24-10.2-11.05
		c-2.3-4.84-3.45-10.24-3.45-16.2c0-5.91,1.15-11.42,3.44-16.54c2.28-5.12,5.57-8.94,9.84-11.41c4.28-2.47,7.68-3.84,13.27-3.84
		c9.86,0,19.67,7.96,22.09,15.07l-6.55,5.16c-2.38-5.77-8.07-11.54-15.49-11.54c-11.16,0-18.94,9.22-18.94,22.6
		c0,9.06,3.77,16.83,10.12,20.48c8.44,4.85,18.83,1,23.44-7.77v-7.06H325.91z"/>
	<polygon class="st0" points="156.51,70.24 156.51,10.32 199.19,10.32 191.46,18.85 164.41,18.85 164.41,34.15 184.36,34.15 
		184.36,42.78 164.41,42.78 164.41,61.34 192.84,61.34 200.58,70.24 	"/>
	<polygon class="st0" points="205.81,70.24 205.81,10.32 213.58,10.32 213.58,61.26 245.71,61.26 245.71,70.24 	"/>
	<polygon class="st0" points="356.85,70.24 356.85,10.32 399.53,10.32 391.79,18.85 364.75,18.85 364.75,34.15 384.71,34.15 
		384.71,42.78 364.75,42.78 364.75,61.34 393.18,61.34 400.92,70.24 	"/>
</g>
</svg>
