<?xml version="1.0" encoding="UTF-8"?>
<svg id="_레이어_1" data-name="레이어 1" xmlns="http://www.w3.org/2000/svg" viewBox="0 0 256.27 45.23">
  <defs>
    <style>
      .cls-1 {
        fill: #2c5937;
        stroke-width: 0px;
      }
    </style>
  </defs>
  <path class="cls-1" d="M0,6.79h6.75v31.69h20.16v5.81H0V6.79Z"/>
  <path class="cls-1" d="M62.25,6.79h15.73c3.73,0,6.55,1,8.48,3,1.93,2,2.89,4.22,2.89,6.66,0,2.06-1.28,4.47-3.84,7.22,3.87,2.69,5.81,5.69,5.81,9,0,4.38-1.5,7.41-4.5,9.09s-5.63,2.53-7.9,2.53h-16.66V6.79ZM69,12.6v8.62h9.03c1.49,0,2.62-.45,3.4-1.36.78-.91,1.16-1.89,1.16-2.95s-.39-2.05-1.16-2.95c-.78-.91-1.91-1.36-3.4-1.36h-9.03ZM69,27.04v11.44h9.75c1.44,0,2.77-.52,3.98-1.56s1.83-2.43,1.83-4.16-.61-3.11-1.83-4.15-2.55-1.56-3.98-1.56h-9.75Z"/>
  <path class="cls-1" d="M217.28,19.35c-1-2-2.53-3.78-4.59-5.34-2.06-1.56-4.56-2.34-7.5-2.34-3.88,0-7.09,1.41-9.66,4.22-2.56,2.81-3.84,6.03-3.84,9.65s1.28,6.92,3.84,9.7c2.56,2.78,5.78,4.17,9.66,4.17,3.56,0,6.41-1.07,8.53-3.22,2.12-2.14,3.59-4.38,4.41-6.72h-14.91v-5.81h21.56c.25,7.44-1.84,12.89-6.28,16.36-4.44,3.47-8.88,5.2-13.31,5.2-5.44,0-10.17-1.92-14.2-5.77-4.03-3.84-6.05-8.48-6.05-13.92s2.02-10.08,6.05-13.92,8.77-5.77,14.2-5.77c4.44,0,8.38,1.23,11.81,3.7,3.44,2.47,5.78,5.73,7.03,9.8h-6.75Z"/>
  <polygon class="cls-1" points="37.5 21.69 37.5 12.6 51.92 12.6 57.66 6.86 57.66 6.79 30.75 6.79 30.75 44.29 58.1 44.29 52.28 38.47 37.5 38.47 37.5 27.51 47.16 27.51 47.16 21.69 37.5 21.69"/>
  <polygon class="cls-1" points="101.36 21.69 101.36 12.6 115.78 12.6 121.51 6.86 121.51 6.79 94.61 6.79 94.61 44.29 121.95 44.29 116.14 38.47 101.36 38.47 101.36 27.51 111.02 27.51 111.02 21.69 101.36 21.69"/>
  <polygon class="cls-1" points="235.67 21.69 235.67 12.6 250.09 12.6 255.83 6.86 255.83 6.79 228.92 6.79 228.92 44.29 256.27 44.29 250.45 38.47 235.67 38.47 235.67 27.51 245.33 27.51 245.33 21.69 235.67 21.69"/>
  <path class="cls-1" d="M126.28,6.79h6.75v31.69h20.16v5.81h-26.91V6.79Z"/>
  <polygon class="cls-1" points="170.12 6.79 170.1 6.79 166.8 0 163.49 6.79 163.47 6.79 147.16 44.29 153.91 44.29 158.03 34.72 160.47 28.91 166.84 14.29 173.12 28.91 175.56 34.72 179.69 44.29 186.44 44.29 170.12 6.79"/>
</svg>