<?xml version="1.0" encoding="utf-8"?>
<!-- Generator: Adobe Illustrator 28.4.1, SVG Export Plug-In . SVG Version: 6.00 Build 0)  -->
<svg version="1.1" id="레이어_1" xmlns="http://www.w3.org/2000/svg" xmlns:xlink="http://www.w3.org/1999/xlink" x="0px"
	 y="0px" viewBox="0 0 141.73 141.73" style="enable-background:new 0 0 141.73 141.73;" xml:space="preserve">
<style type="text/css">
	.st0{fill:#FFFFFF;}
</style>
<g>
	<path class="st0" d="M89.52,47.06H53.06c-3.18,0-5.77,2.59-5.77,5.77v36.46c0,3.18,2.59,5.77,5.77,5.77h36.46
		c3.18,0,5.77-2.59,5.77-5.77V52.83C95.29,49.65,92.7,47.06,89.52,47.06z M71.66,86.89c-8.25,0-14.96-6.71-14.96-14.96
		s6.71-14.96,14.96-14.96s14.96,6.71,14.96,14.96S79.91,86.89,71.66,86.89z M92.41,57.18c-0.56,0.56-1.33,0.88-2.12,0.88
		s-1.56-0.32-2.12-0.88c-0.56-0.56-0.88-1.33-0.88-2.12c0-0.79,0.32-1.56,0.88-2.12c1.11-1.12,3.12-1.12,4.24,0
		c0.56,0.56,0.88,1.33,0.88,2.12C93.29,55.85,92.97,56.62,92.41,57.18z"/>
	<path class="st0" d="M71.66,62.14c-5.4,0-9.79,4.39-9.79,9.79s4.39,9.79,9.79,9.79c5.4,0,9.79-4.39,9.79-9.79
		S77.06,62.14,71.66,62.14z"/>
	<path class="st0" d="M71.29,21.06c-27.61,0-50,22.39-50,50s22.39,50,50,50s50-22.39,50-50S98.9,21.06,71.29,21.06z M101.29,89.29
		c0,6.49-5.28,11.77-11.77,11.77H53.06c-6.49,0-11.77-5.28-11.77-11.77V52.83c0-6.49,5.28-11.77,11.77-11.77h36.46
		c6.49,0,11.77,5.28,11.77,11.77V89.29z"/>
</g>
</svg>
