<?xml version="1.0" encoding="utf-8"?>
<!-- Generator: Adobe Illustrator 28.4.1, SVG Export Plug-In . SVG Version: 6.00 Build 0)  -->
<svg version="1.1" id="레이어_1" xmlns="http://www.w3.org/2000/svg" xmlns:xlink="http://www.w3.org/1999/xlink" x="0px"
	 y="0px" viewBox="0 0 141.73 141.73" style="enable-background:new 0 0 141.73 141.73;" xml:space="preserve">
<style type="text/css">
	.st0{fill:#FFFFFF;}
</style>
<path class="st0" d="M71.29,21.06c-27.61,0-50,22.39-50,50s22.39,50,50,50s50-22.39,50-50S98.9,21.06,71.29,21.06z M86.29,51.06
	h-6.64c-1.13,0-2.3,0.35-3.03,1.11c-0.73,0.77-1.33,1.8-1.33,3.17v3.72h11v8h-11v29h-12v-29h-6v-8h6v-5.05
	c0-3.39,1.09-6.3,3.39-8.52c2.3-2.22,5.37-3.43,9.33-3.43h10.28V51.06z"/>
</svg>
