<?xml version="1.0" encoding="utf-8"?>
<!-- Generator: Adobe Illustrator 28.4.1, SVG Export Plug-In . SVG Version: 6.00 Build 0)  -->
<svg version="1.1" id="레이어_1" xmlns="http://www.w3.org/2000/svg" xmlns:xlink="http://www.w3.org/1999/xlink" x="0px"
	 y="0px" viewBox="0 0 105.48 14.85" style="enable-background:new 0 0 105.48 14.85;" xml:space="preserve">
<path d="M9.29,14.77V8.96H3.42v5.81H0.24V0.29h3.18v5.73h5.87V0.29h3.18v14.47H9.29z"/>
<path d="M63.32,9v5.77h-3.18V9.06l-5.56-8.77h3.72l3.45,5.81l3.51-5.81h3.62L63.32,9z"/>
<path d="M86.94,11.33c-0.3,0.81-0.72,1.49-1.27,2.04c-0.55,0.55-1.22,0.95-2.01,1.22c-0.79,0.27-1.66,0.4-2.63,0.4
	c-1.94,0-3.47-0.54-4.59-1.61c-1.12-1.08-1.67-2.68-1.67-4.82V0.29h3.18v8.19c0,1.19,0.28,2.08,0.83,2.68
	c0.55,0.6,1.32,0.9,2.29,0.9s1.74-0.29,2.29-0.87c0.55-0.58,0.83-1.45,0.83-2.61V0.29h3.18v8.17C87.39,9.56,87.24,10.52,86.94,11.33
	z"/>
<path d="M94.77,14.77V0.29h3.18v11.6h7.22v2.87H94.77z"/>
<rect x="20.09" y="0.29" width="10.9" height="2.83"/>
<rect x="20.09" y="6" width="10.9" height="2.83"/>
<rect x="20.09" y="11.93" width="10.9" height="2.83"/>
<rect x="38.13" y="0.29" width="10.9" height="2.83"/>
<rect x="38.13" y="6" width="10.9" height="2.83"/>
<rect x="38.13" y="11.93" width="10.9" height="2.83"/>
</svg>
